<svg xmlns="http://www.w3.org/2000/svg" viewBox="0 0 1024 1024" role="img" aria-label="PhoneBridge app icon">
  <defs>
    <linearGradient id="bg" x1="160" y1="96" x2="864" y2="928" gradientUnits="userSpaceOnUse">
      <stop offset="0" stop-color="#0f766e" />
      <stop offset="0.52" stop-color="#2563eb" />
      <stop offset="1" stop-color="#4f46e5" />
    </linearGradient>
    <linearGradient id="phone" x1="330" y1="190" x2="694" y2="834" gradientUnits="userSpaceOnUse">
      <stop offset="0" stop-color="#f8fafc" />
      <stop offset="1" stop-color="#cbd5e1" />
    </linearGradient>
    <filter id="shadow" x="-20%" y="-20%" width="140%" height="140%">
      <feDropShadow dx="0" dy="28" stdDeviation="30" flood-color="#020617" flood-opacity="0.35" />
    </filter>
  </defs>

  <rect width="1024" height="1024" rx="232" fill="url(#bg)" />
  <path d="M184 596c72 132 191 208 328 208 139 0 259-78 330-214" fill="none" stroke="#99f6e4" stroke-width="54" stroke-linecap="round" opacity="0.95" />
  <path d="M808 492l56 110-121 28" fill="none" stroke="#99f6e4" stroke-width="54" stroke-linecap="round" stroke-linejoin="round" opacity="0.95" />
  <path d="M840 428C768 296 649 220 512 220c-139 0-259 78-330 214" fill="none" stroke="#bfdbfe" stroke-width="54" stroke-linecap="round" opacity="0.9" />
  <path d="M216 532l-56-110 121-28" fill="none" stroke="#bfdbfe" stroke-width="54" stroke-linecap="round" stroke-linejoin="round" opacity="0.9" />

  <g filter="url(#shadow)">
    <rect x="344" y="176" width="336" height="672" rx="72" fill="#0f172a" />
    <rect x="384" y="228" width="256" height="544" rx="38" fill="url(#phone)" />
    <rect x="454" y="198" width="116" height="18" rx="9" fill="#64748b" />
    <circle cx="512" cy="804" r="22" fill="#64748b" />
    <path d="M448 506h128m-64-64v128" stroke="#2563eb" stroke-width="42" stroke-linecap="round" />
  </g>
</svg>
